<svg xmlns="http://www.w3.org/2000/svg" width="277" height="203" fill="none" viewBox="0 0 277 203"><path fill="#FEEAD1" d="M220.339 106.432c-20.944 0-50.923-.319-51.652-.372-7.022-.51.863-1.354 10.484-2.061a4.4 4.4 0 0 1-.305-1.604c0-3.373 3.874-6.108 8.65-6.108 1.676 0 3.235.336 4.561.918.929-3.531 5.311-6.205 10.58-6.205 4.659 0 8.623 2.088 10.125 5.01a11.8 11.8 0 0 1 3.232-.442c4.244 0 7.775 2.161 8.506 5.011a6.1 6.1 0 0 1 1.772-.257c2.473 0 4.477 1.416 4.477 3.162 0 .503-.167.979-.463 1.401 5.759.477 10.03.917 10.03 1.175 0 .279-8.68.372-19.997.372"/><path fill="#F4F4F4" d="M264.955 113.383c.353-.507.556-1.078.556-1.682 0-2.098-2.409-3.799-5.38-3.799a7.3 7.3 0 0 0-2.126.309c-.88-3.423-5.12-6.02-10.22-6.02-1.375 0-2.682.19-3.883.531-1.802-3.51-6.565-6.018-12.16-6.018-6.331 0-11.595 3.212-12.709 7.453-1.593-.698-3.469-1.103-5.479-1.103-5.74 0-10.394 3.286-10.394 7.338 0 .668.132 1.313.366 1.927-11.556.85-21.027 1.863-12.59 2.476 1.343.098 86.066.954 86.066 0 0-.31-5.129-.839-12.047-1.412"/><path fill="url(#a)" fill-rule="evenodd" d="m80.957 117.842.679 9.291c-.34.153-.66.308-.98.461a.72.72 0 0 0-.34.957c.17.364.604.517.942.346.17-.078.321-.134.492-.212l.66 9.331c-.302.114-.623.229-.924.344a.76.76 0 0 0-.416.939.693.693 0 0 0 .924.421c.17-.057.359-.133.528-.191l.679 9.368c-.302.076-.585.172-.886.25-.378.115-.584.516-.49.9.112.383.509.613.905.498.188-.058.377-.115.584-.173l.679 9.388c-.283.057-.566.115-.83.173a.744.744 0 0 0-.565.862c.075.403.47.651.848.573.208-.057.434-.095.642-.133l.678 9.388q-.395.056-.791.114a.73.73 0 0 0-.605.824.724.724 0 0 0 .811.613c.226-.037.471-.058.698-.096l.679 9.387-.755.058a.74.74 0 0 0-.659.786c.037.402.377.708.772.671l2.207-.172.302 4.252-.075.019a1 1 0 0 0-.925 1.073c.038.574.529.996 1.075.958l.075-.021.775 10.806h-1.887a1.083 1.083 0 0 0 0 2.165h32.509a1.083 1.083 0 0 0 0-2.165H115.2l-.923-12.797h.075c.547-.038.961-.538.925-1.092a1.01 1.01 0 0 0-1.077-.94h-.074l-.303-4.271 1.754-.134a.74.74 0 0 0 .66-.785.734.734 0 0 0-.773-.67l-.659.056-.679-9.406h.621a.72.72 0 0 0 .717-.728c-.019-.402-.34-.727-.735-.727-.228 0-.472 0-.718.018l-.677-9.406c.206.019.395.038.584.038a.693.693 0 0 0 .754-.671.724.724 0 0 0-.661-.784c-.263 0-.527-.02-.772-.039l-.679-9.388c.17.039.358.058.528.077.396.058.754-.23.811-.631a.736.736 0 0 0-.621-.805c-.285-.04-.548-.078-.831-.115l-.678-9.35c.169.019.32.057.489.097a.74.74 0 0 0 .849-.557.725.725 0 0 0-.566-.862c-.283-.076-.585-.134-.886-.192l-.661-9.33c.132.039.284.078.415.115a.727.727 0 0 0 .907-.478.755.755 0 0 0-.491-.92c-.301-.096-.623-.173-.944-.269l-.678-9.291c.132.038.245.096.378.134a.7.7 0 0 0 .924-.402.717.717 0 0 0-.397-.938c-1.452-.595-3.092-1.055-4.827-1.399l-.094-1.341q1.443.258 2.829.632c.207.04.395-.076.432-.268a.354.354 0 0 0-.244-.441 38 38 0 0 0-3.074-.669l-.83-11.515c-2.979-1.264-6.863-1.896-11.087-1.571-4.205.307-7.976 1.494-10.73 3.2l.83 11.513a42 42 0 0 0-2.96 1.13.37.37 0 0 0-.207.479.356.356 0 0 0 .47.191c.887-.383 1.81-.727 2.754-1.054l.095 1.342c-1.698.613-3.263 1.322-4.64 2.126-.338.211-.47.653-.264.997a.71.71 0 0 0 .981.268c.132-.077.283-.152.415-.23m8.844 82.053-1-13.659a1.183 1.183 0 0 1 1.075-1.247 1.175 1.175 0 0 1 1.226 1.074l.113 1.724 1.697-.134-.075-1.187c-.075-.94.603-1.744 1.528-1.801.904-.077 1.696.632 1.753 1.552l.093 1.207 2.188-.173-.038-.385c-.093-1.378.925-2.584 2.283-2.68 1.356-.096 2.544.938 2.639 2.318l.037.383 2.169-.172-.076-1.189c-.075-.938.623-1.743 1.528-1.8.906-.076 1.697.632 1.772 1.553l.077 1.206 1.697-.135-.132-1.725a1.18 1.18 0 0 1 1.074-1.244 1.165 1.165 0 0 1 1.225 1.092l1.113 15.422h-2.3l-.83-11.552-1.697.135.83 11.417h-3.319l-.811-11.169-2.188.154.792 11.015h-4.94l-.773-10.652-2.168.172.755 10.48h-3.32l-.736-10.23-1.696.115.735 10.115zm5.373-76.018.453-.039.453-.037.471-.039zm-4.13-8.583c.642-.038 1.209.479 1.265 1.148l.547 7.703c-.774.096-1.546.23-2.3.364v-.097c-.19-2.604-.378-5.191-.566-7.796-.057-.672.433-1.265 1.054-1.322m-3.524.805c.527-.038.98.382 1.017.938l.567 7.76c-.435.096-.868.191-1.302.306a6 6 0 0 0-.566.135l-.585-8.067c-.037-.555.36-1.034.869-1.072m-2.849.919c.397-.038.755.307.774.728l.566 7.818c-.49.152-.962.305-1.433.459l-.585-8.162c-.038-.439.264-.804.678-.843m-2.395.902a.54.54 0 0 1 .567.495l.584 8.011c-.358.133-.697.248-1.037.402l-.585-8.334a.5.5 0 0 1 .471-.556zm17.575-3.277c.641-.039 1.207.459 1.245 1.149l.565 7.798v.095c-.754-.039-1.527-.039-2.32-.039l-.546-7.681c-.056-.69.415-1.265 1.056-1.322m3.601.268c.528-.039.982.383 1.019.939l.585 8.065c-.208-.038-.414-.057-.622-.077-.435-.037-.849-.057-1.283-.095l-.566-7.759c-.037-.556.358-1.034.867-1.073m2.98.479c.396-.02.754.306.773.728l.603 8.161-1.489-.229-.566-7.817c-.038-.423.264-.805.679-.843m2.489.554a.514.514 0 0 1 .547.481l.602 8.334a16 16 0 0 0-1.054-.25l-.585-7.989a.524.524 0 0 1 .49-.576m-12.652 10.174a1.38 1.38 0 0 1 1.47 1.284c.17 2.509.358 5.038.529 7.548.019.019.019.039.019.076-.472.021-.925.059-1.396.078l-1.34.114c-.018-.019-.018-.037-.018-.076-.169-2.51-.359-5.02-.547-7.53a1.403 1.403 0 0 1 1.283-1.494m-4.394.498c.642-.037 1.188.479 1.245 1.15l.547 7.662a45 45 0 0 0-2.3.346v-.057c-.19-2.587-.378-5.193-.568-7.778-.037-.67.435-1.265 1.076-1.323m-3.546.709c.529-.039.982.384 1.019.94l.566 7.758c-.377.077-.774.155-1.15.23-.246.058-.491.116-.717.172l-.585-8.008c-.037-.555.358-1.035.867-1.092m-2.865.805c.415-.019.754.306.792.728l.565 7.855c-.49.115-.962.249-1.452.383l-.585-8.123c-.018-.422.284-.804.68-.843m-2.395.805c.301-.02.546.19.566.479l.585 8.008c-.36.115-.698.23-1.038.344l-.584-8.277a.513.513 0 0 1 .47-.554m17.612-2.97c.622-.038 1.187.461 1.245 1.15.187 2.586.377 5.191.546 7.778 0 .019.018.037.018.037-.772 0-1.546 0-2.337.02l-.547-7.664c-.057-.688.435-1.263 1.075-1.321m3.582.192c.529-.058.981.364 1.019.92l.584 8.008q-.395-.029-.792-.059c-.377-.018-.735-.037-1.112-.057l-.566-7.739c-.038-.556.359-1.035.867-1.073m2.96.364c.416-.039.755.287.793.709l.585 8.123c-.491-.058-.981-.115-1.491-.172l-.564-7.836c-.021-.423.282-.805.677-.824m2.489.421a.514.514 0 0 1 .548.499l.603 8.238c-.359-.059-.698-.116-1.056-.172l-.584-7.991a.534.534 0 0 1 .489-.574M97.079 137.46a1.38 1.38 0 0 1 1.47 1.284c.19 2.509.359 5.039.548 7.548v.038c-.471.038-.924.058-1.396.097l-1.337.113v-.056a996 996 0 0 1-.548-7.53 1.39 1.39 0 0 1 1.263-1.494m-4.394.479c.642-.039 1.207.479 1.245 1.149l.567 7.644a90 90 0 0 0-2.321.307l-.547-7.779c-.056-.67.415-1.265 1.056-1.321m-3.545.632c.529-.038.982.383 1.019.938l.566 7.742c-.34.056-.66.114-1 .171-.283.058-.585.115-.867.172l-.585-7.95c-.037-.556.358-1.034.867-1.073m-2.866.689c.396-.037.754.288.792.711l.565 7.853c-.489.096-.98.211-1.45.326l-.585-8.066c-.038-.421.263-.804.678-.824m-2.413.671a.52.52 0 0 1 .565.499l.585 7.988c-.359.096-.698.173-1.036.269l-.585-8.181c-.02-.308.188-.556.47-.575m17.631-2.643c.641-.038 1.188.459 1.243 1.149l.566 7.76q-1.159 0-2.318.057l-.566-7.644c-.038-.69.433-1.265 1.075-1.322m3.582.096c.529-.039.98.382 1.019.939l.584 7.931c-.321-.02-.641-.02-.962-.039-.32 0-.622 0-.942-.018l-.566-7.741c-.039-.556.358-1.034.867-1.072m2.961.247c.396-.037.755.308.791.729l.568 8.046a34 34 0 0 0-1.473-.095l-.565-7.835c-.038-.441.264-.805.679-.845m2.469.308a.526.526 0 0 1 .547.498l.604 8.161c-.358-.037-.698-.058-1.056-.096l-.584-7.988a.547.547 0 0 1 .489-.575m-12.596 10.863c.755-.058 1.415.536 1.453 1.302.188 2.49.377 5 .546 7.51v.038c-.452.021-.923.057-1.394.096-.434.02-.887.057-1.34.096v-.018c-.17-2.511-.358-5.021-.546-7.53a1.4 1.4 0 0 1 1.282-1.494m-4.392.46c.622-.038 1.187.477 1.244 1.149l.546 7.605c-.772.096-1.545.174-2.32.269l-.546-7.701c-.056-.67.435-1.265 1.076-1.322m-3.565.555c.529-.038.98.365 1.019.919l.566 7.74c-.284.039-.566.078-.83.116-.359.056-.698.096-1.056.152l-.566-7.855c-.038-.555.358-1.033.867-1.072m-2.885.555a.764.764 0 0 1 .792.728l.566 7.837c-.49.076-.962.172-1.452.247l-.584-7.988c-.02-.421.282-.785.678-.824m-2.395.556a.527.527 0 0 1 .548.498l.584 7.97c-.358.076-.697.134-1.037.211l-.585-8.104a.534.534 0 0 1 .49-.575m17.632-2.318a1.187 1.187 0 0 1 1.244 1.129l.565 7.722c-.773.019-1.546.039-2.319.077l-.546-7.624c-.058-.673.433-1.266 1.056-1.304m3.601.019c.51-.038.961.364 1 .92l.584 7.855h-1.132c-.263 0-.508.019-.772.019l-.566-7.721c-.039-.555.358-1.035.886-1.073m2.922.115a.763.763 0 0 1 .792.727l.585 7.97c-.491-.018-.98-.018-1.49-.037l-.565-7.817c-.02-.423.283-.804.678-.843m2.471.211c.282-.038.528.192.566.478l.584 8.086c-.358-.019-.716-.039-1.055-.039l-.585-7.97a.53.53 0 0 1 .49-.555m-12.578 11.188a1.406 1.406 0 0 1 1.471 1.303l.547 7.509c-.472.04-.942.057-1.413.096l-1.32.116-.548-7.529a1.39 1.39 0 0 1 1.263-1.495m-4.393.44c.642-.038 1.188.48 1.245 1.15l.547 7.586c-.774.078-1.547.153-2.32.212l-.547-7.625c-.037-.671.434-1.265 1.075-1.323m-3.545.46c.51-.038.962.384 1 .939l.564 7.701a8 8 0 0 1-.677.077c-.396.038-.811.096-1.208.135l-.565-7.779c-.038-.554.358-1.034.886-1.073m-2.903.441c.395-.019.753.306.791.728l.566 7.836-1.47.172-.566-7.893c-.038-.421.282-.804.679-.843m-2.414.441a.527.527 0 0 1 .547.498l.585 7.95c-.36.039-.698.096-1.038.135l-.585-8.008a.56.56 0 0 1 .491-.575m17.669-1.992c.622-.039 1.187.46 1.243 1.13l.547 7.644a90 90 0 0 0-2.32.134l-.545-7.606c-.058-.67.432-1.264 1.075-1.302m3.582-.078c.508-.038.961.384.999.94l.565 7.758-1.282.059c-.206 0-.414.018-.603.018l-.565-7.701c-.038-.555.358-1.035.886-1.074m2.923.02c.395-.039.753.287.792.708l.564 7.894c-.49 0-.979.019-1.468.037l-.567-7.815c-.038-.423.264-.805.679-.824m2.451.076a.53.53 0 0 1 .565.479l.566 7.989c-.34 0-.697.02-1.036.02l-.586-7.932a.53.53 0 0 1 .491-.556m-12.558 11.554a1.38 1.38 0 0 1 1.471 1.282l.546 7.471-2.734.212-.546-7.473c-.058-.764.527-1.436 1.263-1.492m-4.394.401c.641-.038 1.206.479 1.245 1.149l.546 7.549-2.3.191-.547-7.568c-.056-.689.434-1.263 1.056-1.321m-3.545.383c.51-.039.962.382 1.019.92l.546 7.681-1.885.155-.565-7.684c-.039-.555.357-1.034.885-1.072m-2.923.325a.736.736 0 0 1 .792.711l.566 7.815-1.47.095-.547-7.796c-.039-.421.263-.804.66-.825m-2.413.326a.54.54 0 0 1 .565.479l.565 7.911-1.035.078-.585-7.913a.53.53 0 0 1 .49-.555m17.687-1.686c.641-.056 1.189.46 1.244 1.131l.547 7.567-2.319.172-.548-7.567c-.036-.671.434-1.245 1.076-1.303m3.583-.153c.509-.038.961.382 1.018.92l.546 7.663-1.885.154-.564-7.664c-.04-.556.356-1.034.885-1.073m2.904-.116a.753.753 0 0 1 .792.729l.565 7.777-1.469.096-.548-7.775a.75.75 0 0 1 .66-.827m2.45-.037a.53.53 0 0 1 .566.499l.565 7.873-1.035.076-.567-7.875a.52.52 0 0 1 .471-.573m-17.441-56.287c.754-.057 1.414.537 1.47 1.283.17 2.53.36 5.04.547 7.55v.076c-.471.039-.924.057-1.395.096l-1.338.115c0-.019 0-.056-.02-.076-.169-2.511-.359-5.039-.528-7.548-.055-.767.51-1.437 1.264-1.496m15.085 72.168.038.557-1.699.113-.037-.535zm-4.997.384.037.537-2.168.172-.057-.557zm-7.09.517.038.556-2.188.152-.038-.536zm-5.487.422.037.536-1.697.134-.038-.556zm12.35-90.827c.189.057.284.268.227.459a.36.36 0 0 1-.453.23 25.6 25.6 0 0 0-5.318-1.226 29 29 0 0 0-5.618-.133c-1.904.133-3.79.477-5.582.975a25.8 25.8 0 0 0-5.09 2.012.364.364 0 0 1-.473-.152.376.376 0 0 1 .151-.5 27 27 0 0 1 5.224-2.067 30 30 0 0 1 5.713-.997 30.5 30.5 0 0 1 5.77.134c1.886.25 3.714.67 5.449 1.264" clip-rule="evenodd"/><path fill="url(#b)" fill-rule="evenodd" d="M160.907 168.164h-28.801a1.58 1.58 0 0 0-1.586 1.583c0 .892.693 1.583 1.586 1.583h28.801c.896 0 1.589-.691 1.589-1.583a1.58 1.58 0 0 0-1.589-1.583m11.17-42.381c.259 0 .432.172.432.402v4.143c0 .23-.173.433-.432.433-.232 0-.405-.203-.405-.433v-4.143c0-.23.173-.402.405-.402m-2.251 0c.23 0 .432.172.432.402v4.143c0 .23-.202.433-.432.433a.445.445 0 0 1-.434-.433v-4.143c0-.23.203-.402.434-.402m1.155 0c.23 0 .432.172.432.402v4.143c0 .23-.202.433-.432.433a.445.445 0 0 1-.434-.433v-4.143c0-.23.202-.402.434-.402m10.071 42.381h28.801c.896 0 1.587.718 1.587 1.583 0 .892-.691 1.583-1.587 1.583h-28.801a1.563 1.563 0 0 1-1.588-1.583 1.58 1.58 0 0 1 1.588-1.583m-10.071-26.039h38.064a2.123 2.123 0 0 0 2.108-2.13v-1.15h1.328a.68.68 0 0 0 .691-.691v-2.1h-84.384v2.1c0 .375.288.691.693.691h1.327v1.15c0 1.181.953 2.13 2.107 2.13zm38.757-20.371h-77.516c-.55 0-.982.462-.982 1.007a.97.97 0 0 0 .982.978h77.516a.97.97 0 0 0 .981-.978c0-.545-.433-1.007-.981-1.007m-.375 2.963h-76.766v7.079h76.766zm-6.148 1.066c.231 0 .404.172.404.402v4.143c0 .23-.173.433-.404.433a.424.424 0 0 1-.431-.433v-4.143c0-.23.171-.402.431-.402m3.176 0c.23 0 .403.172.403.402v4.143c0 .23-.173.433-.403.433a.445.445 0 0 1-.433-.433v-4.143c0-.23.202-.402.433-.402m-31.746 0c.232 0 .404.172.404.402v4.143c0 .23-.172.433-.404.433a.427.427 0 0 1-.434-.433v-4.143c0-.23.175-.402.434-.402m3.175 0c.23 0 .403.172.403.402v4.143c0 .23-.173.433-.403.433a.444.444 0 0 1-.432-.433v-4.143c0-.23.201-.402.432-.402m3.174 0c.231 0 .406.172.406.402v4.143c0 .23-.175.433-.406.433a.445.445 0 0 1-.433-.433v-4.143c0-.23.203-.402.433-.402m3.175 0c.23 0 .403.172.403.402v4.143c0 .23-.173.433-.403.433a.445.445 0 0 1-.434-.433v-4.143c0-.23.174-.402.434-.402m3.173 0c.232 0 .405.172.405.402v4.143c0 .23-.173.433-.405.433a.425.425 0 0 1-.432-.433v-4.143c0-.23.173-.402.432-.402m3.177 0c.23 0 .403.172.403.402v4.143c0 .23-.173.433-.403.433a.426.426 0 0 1-.434-.433v-4.143c0-.23.173-.402.434-.402m3.173 0c.23 0 .403.172.403.402v4.143c0 .23-.173.433-.403.433a.426.426 0 0 1-.433-.433v-4.143c0-.23.173-.402.433-.402m3.174 0c.232 0 .404.172.404.402v4.143c0 .23-.172.433-.404.433a.426.426 0 0 1-.432-.433v-4.143c0-.23.174-.402.432-.402m3.175 0c.232 0 .404.172.404.402v4.143c0 .23-.172.433-.404.433a.424.424 0 0 1-.432-.433v-4.143c0-.23.171-.402.432-.402m13.131 9.351h.491c.519-.115.925-.605.925-1.152a1.17 1.17 0 0 0-1.184-1.179h-84.846c-.666 0-1.184.518-1.184 1.179 0 .547.404 1.037.923 1.152h84.875m-6.667 19.708h-19.422c-.23 0-.403.173-.403.375v9.294c0 .201.173.373.403.373h19.422a.38.38 0 0 0 .376-.373v-9.294a.38.38 0 0 0-.376-.375m-.577.95v8.172h-18.297v-8.172zm-34.947-6.532h38.238v-5.466h-2.368v1.295c0 .345-.288.634-.605.634h-1.616a.64.64 0 0 1-.636-.634v-1.295h-2.078v1.295a.64.64 0 0 1-.634.634h-1.616a.64.64 0 0 1-.634-.634v-1.295h-2.078v1.295c0 .345-.289.634-.607.634h-1.616a.64.64 0 0 1-.636-.634v-1.295h-2.077v1.295a.64.64 0 0 1-.635.634h-1.616a.64.64 0 0 1-.634-.634v-1.295h-2.079v1.295c0 .345-.287.634-.605.634h-1.646c-.316 0-.607-.289-.607-.634v-1.295h-2.077v1.295a.64.64 0 0 1-.635.634h-1.614a.64.64 0 0 1-.636-.634v-1.295h-2.079v1.295a.64.64 0 0 1-.635.634h-1.616c-.318 0-.606-.289-.606-.634v-1.295h-2.076v1.295a.64.64 0 0 1-.636.634h-1.212a.64.64 0 0 1-.634-.634v-1.295h-2.078v1.295c0 .345-.29.634-.607.634h-1.616a.64.64 0 0 1-.636-.634v-1.295h-2.077v1.295a.64.64 0 0 1-.635.634h-1.616a.64.64 0 0 1-.634-.634v-1.295h-2.079v1.295c0 .345-.287.634-.605.634h-1.646c-.316 0-.607-.289-.607-.634v-1.295h-2.077v1.295a.64.64 0 0 1-.634.634h-1.617a.64.64 0 0 1-.636-.634v-1.295h-2.076v1.295a.64.64 0 0 1-.636.634h-1.616c-.318 0-.606-.289-.606-.634v-1.295h-2.078v1.295a.64.64 0 0 1-.634.634h-1.616a.64.64 0 0 1-.635-.634v-1.295h-2.079v1.295a.64.64 0 0 1-.634.634h-1.616c-.317 0-.605-.289-.605-.634v-1.295h-2.368v5.466zm0 2.302h38.238v-1.351h-76.478v1.351zm0 .949h12.438v10.676c-1.819-4.46-5.974-7.74-10.91-8.287v-1.237c0-.258-.173-.432-.432-.432-.232 0-.405.174-.405.432v1.151h-.259v-1.151a.425.425 0 0 0-.432-.432.426.426 0 0 0-.434.432v1.151h-.289v-1.151a.425.425 0 0 0-.432-.432.426.426 0 0 0-.434.432v1.237c-4.907.576-9.033 3.856-10.851 8.287v-10.676zm.432 3.252v1.123c0 .23-.202.404-.432.404-.232 0-.434-.174-.434-.404v-1.123h-.289v1.123c0 .23-.202.404-.432.404-.231 0-.434-.174-.434-.404v-1.037c-5.8.72-10.388 5.496-10.851 11.395h1.791c.461-5.439 5.078-9.755 10.649-9.755 5.569 0 10.185 4.316 10.649 9.755h1.789c-.462-5.899-5.079-10.675-10.91-11.395v1.037c0 .23-.173.404-.432.404a.395.395 0 0 1-.405-.404v-1.123zm12.929 11.481v-14.733h24.877v14.733h-24.877m-2.655 5.035v1.152h27.532v-1.152h-27.532m0 2.1v27.681h1.759v-27.681zm2.712 27.681h6.35v-8.143h-6.35zm6.35-9.064v-6.849c0-3.338 2.712-6.071 6.06-6.071 3.346 0 6.061 2.733 6.061 6.071v6.849h6.349v-18.617h-24.82v18.617zm12.121.921v8.143h6.349v-8.143zm-11.198 8.143h10.274v-8.143h-10.274zm10.274-9.064h-10.274v-6.849c0-2.819 2.309-5.12 5.137-5.12 2.829 0 5.137 2.301 5.137 5.12zm-63.202-67.213c.26 0 .433.172.433.402v4.143c0 .23-.173.433-.433.433-.23 0-.405-.203-.405-.433v-4.143c0-.23.175-.402.405-.402m-3.176 0c.261 0 .434.172.434.402v4.143c0 .23-.173.433-.434.433-.23 0-.402-.203-.402-.433v-4.143c0-.23.172-.402.402-.402m31.747 0c.259 0 .432.172.432.402v4.143c0 .23-.173.433-.432.433-.23 0-.405-.203-.405-.433v-4.143c0-.23.175-.402.405-.402m-3.175 0c.261 0 .433.172.433.402v4.143c0 .23-.172.433-.433.433-.23 0-.405-.203-.405-.433v-4.143c0-.23.175-.402.405-.402m-3.174 0c.259 0 .432.172.432.402v4.143c0 .23-.173.433-.432.433-.231 0-.404-.203-.404-.433v-4.143c0-.23.173-.402.404-.402m-3.175 0c.259 0 .434.172.434.402v4.143c0 .23-.175.433-.434.433-.232 0-.404-.203-.404-.433v-4.143c0-.23.172-.402.404-.402m-3.174 0c.23 0 .433.172.433.402v4.143c0 .23-.203.433-.433.433-.231 0-.404-.203-.404-.433v-4.143c0-.23.173-.402.404-.402m-3.175 0c.26 0 .433.172.433.402v4.143c0 .23-.203.433-.433.433-.231 0-.404-.203-.404-.433v-4.143c0-.23.173-.402.404-.402m-3.175 0c.261 0 .432.172.432.402v4.143c0 .23-.171.433-.432.433-.23 0-.403-.203-.403-.433v-4.143c0-.23.173-.402.403-.402m-3.173 0c.259 0 .432.172.432.402v4.143c0 .23-.173.433-.432.433-.232 0-.405-.203-.405-.433v-4.143c0-.23.173-.402.405-.402m-3.175 0c.259 0 .433.172.433.402v4.143c0 .23-.174.433-.433.433-.232 0-.405-.203-.405-.433v-4.143c0-.23.173-.402.405-.402m-6.465 29.059h19.423c.23 0 .403.173.403.375v9.294c0 .201-.173.373-.403.373h-19.423a.38.38 0 0 1-.375-.373v-9.294c0-.202.173-.375.375-.375m.578.95v8.172h18.297v-8.172zm21.586 11.452v-14.733h-24.877v14.733h24.877m2.655 5.035v1.152h-27.532v-1.152h27.532m0 2.1v27.681h-1.76v-27.681zm-2.714 27.681h-6.348v-8.143h6.348zm-6.348-9.064v-6.849c0-3.338-2.712-6.071-6.06-6.071s-6.06 2.733-6.06 6.071v6.849h-6.35v-18.617h24.818v18.617zm-12.12.921v8.143h-6.35v-8.143zm11.197 8.143h-10.274v-8.143h10.274zm-10.274-9.064h10.274v-6.849c0-2.819-2.309-5.12-5.137-5.12s-5.137 2.301-5.137 5.12z" clip-rule="evenodd"/><path fill="url(#c)" fill-rule="evenodd" d="M10.594 181.838 0 201.978h13.7c2.542-7.61 11.58-13.238 22.386-13.238 10.803 0 19.842 5.628 22.349 13.238h13.7l-10.559-20.14v-8.565a1.96 1.96 0 0 0-1.941-1.945h-2.33a99 99 0 0 1-5.332-16.316c-1.34-5.768-2.188-11.466-2.542-16.917a2.16 2.16 0 0 0 1.589-2.087 2.144 2.144 0 0 0-2.154-2.161h-1.872c-2.541-16.526-6.212-61.65-7.096-101.571.74-.106 1.307-.709 1.307-1.487v-2.264c0-.672-.423-1.203-1.024-1.415v-3.258a2.63 2.63 0 0 0-2.26-2.617V15.96a1.18 1.18 0 0 0-1.025-1.167V.495c0-.283-.245-.495-.529-.495h-.565c-.281 0-.53.212-.53.495v14.3a1.18 1.18 0 0 0-1.024 1.166v5.274c-1.27.175-2.294 1.273-2.294 2.617v3.258a1.5 1.5 0 0 0-.989 1.415v2.264c0 .778.565 1.381 1.307 1.487-.92 39.92-4.553 85.045-7.131 101.571h-1.837c-1.2 0-2.154.958-2.154 2.161 0 .991.671 1.841 1.59 2.087-.39 5.451-1.2 11.149-2.579 16.917-1.377 5.875-3.177 11.36-5.296 16.316h-2.33a1.96 1.96 0 0 0-1.941 1.945zm33.965-10.51H27.611c1.483-6.724 3.602-18.014 3.814-23.393h9.321c.176 5.379 2.33 16.669 3.813 23.393" clip-rule="evenodd"/><path fill="#fff" fill-rule="evenodd" d="M39.897 33.162v-.886h-7.626c0 .283 0 .566-.034.886zM61.575 181.838v-1.733H10.593v1.733zM8.684 185.448l-.565 1.097h55.929l-.565-1.097z" clip-rule="evenodd"/><path fill="#F4F0D8" fill-rule="evenodd" d="M9.076 201.978h1.906l9.957-20.317-1.554-.778z" clip-rule="evenodd"/><path fill="#fff" fill-rule="evenodd" d="M36.34 185.519c7.17 0 13.7 2.159 18.43 5.629 2.967 2.192 5.227 4.918 6.498 7.96h-.989c-1.236-2.759-3.32-5.201-6.072-7.218-4.556-3.362-10.876-5.451-17.866-5.451s-13.347 2.089-17.9 5.451c-2.719 2.017-4.838 4.459-6.074 7.218h-.99c1.272-3.042 3.566-5.768 6.533-7.96 4.697-3.47 11.227-5.629 18.43-5.629" clip-rule="evenodd"/><path fill="#fff" fill-rule="evenodd" d="M61.646 201.978h1.907l-10.31-21.095-1.554.778zM49.609 140.217c-.072-.706-.105-1.414-.177-2.122H22.741c-.072.708-.108 1.416-.177 2.122zM50.285 146.023c-.036-.355-.106-.706-.14-1.061H22.037c-.035.355-.106.706-.14 1.061zM40.074 39.46c0-.32 0-.6-.035-.884h-7.946v.884z" clip-rule="evenodd"/><path fill="#F4F0D8" fill-rule="evenodd" d="M40.287 45.725c0-.283-.035-.567-.035-.886H31.92c-.034.32-.034.603-.034.886zM40.534 52.023c0-.283-.035-.564-.035-.883h-8.827c-.036.319-.036.6-.036.883z" clip-rule="evenodd"/><path fill="#fff" fill-rule="evenodd" d="m40.821 58.324-.035-.886h-9.393l-.035.886z" clip-rule="evenodd"/><path fill="#F4F0D8" fill-rule="evenodd" d="M41.137 64.623c-.036-.281-.036-.603-.07-.884h-9.993c0 .282-.035.603-.035.884z" clip-rule="evenodd"/><path fill="#fff" fill-rule="evenodd" d="m41.492 70.922-.07-.884H30.758l-.072.884zM41.841 77.223l-.035-.92H30.367l-.036.92zM42.264 83.485l-.071-.883H29.977l-.07.883z" clip-rule="evenodd"/><path fill="#F4F0D8" fill-rule="evenodd" d="M42.683 89.786c-.035-.284-.035-.6-.07-.884H29.548c-.036.283-.036.6-.072.884z" clip-rule="evenodd"/><path fill="#fff" fill-rule="evenodd" d="M43.146 96.087c-.035-.283-.035-.603-.07-.884H29.092c-.035.281-.07.6-.07.884zM43.638 102.385c0-.319-.035-.6-.071-.884h-14.97c-.035.284-.07.565-.105.884zM44.207 108.686l-.106-.92H28.036l-.072.92zM44.772 114.949c0-.284-.035-.565-.07-.886h-17.23c-.035.321-.07.602-.105.886zM45.44 121.25c-.037-.286-.07-.603-.108-.886H26.831c-.034.283-.07.6-.105.886z" clip-rule="evenodd"/><path fill="#F4F0D8" fill-rule="evenodd" d="M46.148 127.548c-.035-.283-.07-.601-.105-.884H26.128c-.035.283-.069.601-.105.884z" clip-rule="evenodd"/><path fill="#fff" fill-rule="evenodd" d="M46.997 133.847c-.035-.282-.07-.601-.105-.884H25.284c-.035.283-.071.602-.14.884z" clip-rule="evenodd"/><path fill="#fff" fill-rule="evenodd" d="M30.647 133.212c-.036.246.14.459.389.495a.44.44 0 0 0 .494-.389c1.023-7.609 1.694-14.477 2.225-21.164.528-6.654.917-13.13 1.27-20.032l.035-.742c.6-11.538 1.271-24.173 1.483-39.78 0-.249-.212-.46-.458-.46a.466.466 0 0 0-.459.46c-.213 15.535-.884 28.206-1.449 39.708l-.07.778c-.352 6.832-.706 13.308-1.236 19.998a413 413 0 0 1-2.224 21.128" clip-rule="evenodd"/><path fill="#fff" fill-rule="evenodd" d="M40.642 133.318a.44.44 0 0 0 .495.389.44.44 0 0 0 .389-.495 413 413 0 0 1-2.225-21.128c-.53-6.69-.918-13.166-1.272-19.998l-.035-.778c-.599-11.502-1.235-24.173-1.447-39.707a.446.446 0 0 0-.458-.461.466.466 0 0 0-.46.46c.211 15.607.882 28.242 1.483 39.78l.035.742c.353 6.901.707 13.378 1.236 20.032a386 386 0 0 0 2.259 21.164" clip-rule="evenodd"/><defs><linearGradient id="a" x1="99.755" x2="99.755" y1="95.849" y2="202.06" gradientUnits="userSpaceOnUse"><stop stop-color="#F37022" stop-opacity=".5"/><stop offset="1" stop-color="#FCAF17" stop-opacity="0"/></linearGradient><linearGradient id="b" x1="170.981" x2="170.981" y1="121.754" y2="202.06" gradientUnits="userSpaceOnUse"><stop stop-color="#F37022" stop-opacity=".5"/><stop offset="1" stop-color="#FCAF17" stop-opacity="0"/></linearGradient><linearGradient id="c" x1="36.068" x2="36.068" y1="201.978" y2="0" gradientUnits="userSpaceOnUse"><stop stop-color="#FCAF17" stop-opacity="0"/><stop offset="1" stop-color="#F37022" stop-opacity=".5"/></linearGradient></defs></svg>