<svg xmlns="http://www.w3.org/2000/svg" width="411" height="127" fill="none" viewBox="0 0 411 127"><path fill="#FEEAD1" d="M51.401 44.891c-19.811 0-48.17-.302-48.86-.351-6.642-.483.817-1.281 9.918-1.95a4.2 4.2 0 0 1-.288-1.518c0-3.19 3.664-5.778 8.182-5.778 1.585 0 3.06.319 4.314.869.88-3.34 5.024-5.87 10.008-5.87 4.408 0 8.157 1.975 9.578 4.74a11.2 11.2 0 0 1 3.057-.419c4.015 0 7.354 2.045 8.047 4.74a5.8 5.8 0 0 1 1.675-.243c2.34 0 4.235 1.34 4.235 2.992 0 .475-.158.925-.437 1.325 5.447.45 9.487.867 9.487 1.112 0 .263-8.21.351-18.916.351"/><path fill="#F4F4F4" d="M93.603 51.466c.335-.48.526-1.02.526-1.592 0-1.984-2.279-3.593-5.089-3.593-.714 0-1.394.105-2.011.293-.833-3.239-4.843-5.695-9.668-5.695-1.3 0-2.536.18-3.673.502-1.704-3.32-6.21-5.693-11.502-5.693-5.988 0-10.968 3.039-12.022 7.051-1.507-.66-3.281-1.043-5.183-1.043-5.43 0-9.832 3.107-9.832 6.941 0 .631.125 1.242.347 1.823-10.932.803-19.891 1.762-11.91 2.342 1.27.092 81.414.902 81.414 0 0-.294-4.852-.794-11.397-1.336"/><path fill="url(#a)" fill-rule="evenodd" d="M208.205 114.082h202.059v12.876H208.205zm102.121-100.57c1.062-.411 1.812-1.484 1.812-2.715s-.75-2.304-1.812-2.747v-.44c.47-.346.78-.915.78-1.547 0-.661-.31-1.229-.78-1.576V1.963c0-.6-.499-1.076-1.092-1.076-.592 0-1.092.476-1.092 1.076v2.524a1.94 1.94 0 0 0-.783 1.576c0 .632.312 1.201.783 1.546v.441a2.98 2.98 0 0 0-1.811 2.747c0 1.231.748 2.304 1.811 2.715v2.492c-1.843 1.704-3.965 3.567-6.183 5.525-.249.187-.312.502-.217.787a.7.7 0 0 0 .686.475h13.611c.316 0 .563-.159.688-.475.095-.285.033-.6-.219-.787-2.217-1.958-4.34-3.82-6.182-5.525zm-89.664 25.024.029 1.01h.877c.591 0 1.092.506 1.092 1.105 0 .6-.501 1.105-1.092 1.105h-.781l.28 5.333h1.249c.627 0 1.092.504 1.092 1.105 0 .6-.465 1.103-1.092 1.103h-.592c.312.158.531.537.531.948a1.07 1.07 0 0 1-1.001 1.073l.032.85.845 17.86h-9.712l.844-17.86.031-.85a1.07 1.07 0 0 1-.998-1.073c0-.411.218-.76.529-.948h-.591a1.113 1.113 0 0 1-1.096-1.103c0-.601.501-1.105 1.096-1.105h1.247l.281-5.333h-.782a1.113 1.113 0 0 1-1.092-1.105c.034-.6.501-1.105 1.092-1.105h.875l.032-1.01a4.35 4.35 0 0 1 1-2.556c.436-.505.999-.883 1.623-1.041v-2.873c0-.6.343-1.105.782-1.105.404 0 .778.506.778 1.105v2.873c.594.158 1.155.535 1.591 1.04a4.32 4.32 0 0 1 1.001 2.557m177.144 0-.032 1.01h-.874c-.594 0-1.092.506-1.092 1.105 0 .6.498 1.105 1.092 1.105h.78l-.28 5.333h-1.247c-.595 0-1.096.504-1.096 1.105 0 .6.471 1.103 1.096 1.103h.591c-.311.158-.53.537-.53.948 0 .567.438 1.04.999 1.073l-.032.85-.841 17.86h9.708l-.843-17.86-.03-.85c.562-.032.996-.506.996-1.073 0-.411-.217-.76-.529-.948h.593c.594 0 1.094-.504 1.094-1.103 0-.601-.5-1.105-1.094-1.105h-1.279l-.251-5.333h.78a1.11 1.11 0 0 0 1.092-1.105c0-.6-.497-1.105-1.092-1.105h-.875l-.06-1.01a4.13 4.13 0 0 0-.968-2.556c-.438-.505-1.001-.883-1.625-1.041v-2.873c0-.6-.343-1.105-.78-1.105-.404 0-.78.506-.78 1.105v2.873c-.593.158-1.155.535-1.593 1.04-.561.664-.935 1.548-.998 2.557M375.984 57.85l-.033.756h-.623a.83.83 0 0 0-.812.82c0 .443.376.79.812.79h.561l-.185 3.978h-.939c-.467 0-.813.345-.813.786 0 .443.346.82.813.82h.436a.79.79 0 0 0-.404.696c0 .443.342.788.748.821l-.03.6-.623 13.221h7.179l-.623-13.221-.034-.6a.8.8 0 0 0 .75-.821.79.79 0 0 0-.407-.696h.471c.436 0 .778-.377.778-.82a.774.774 0 0 0-.778-.786h-.937l-.187-3.978h.561c.438 0 .78-.347.78-.79 0-.441-.342-.82-.78-.82h-.656l-.03-.756a3.3 3.3 0 0 0-.718-1.893c-.344-.347-.75-.631-1.188-.76v-2.113c0-.441-.28-.822-.592-.822-.314 0-.561.381-.561.822v2.113c-.47.129-.875.413-1.188.76a3.1 3.1 0 0 0-.748 1.893m-1.127 23.984h-.748c-.438 0-.812.345-.812.786s.374.823.812.823h.219a.826.826 0 0 0 .376 1.514l-.563 11.707h8.679l-.562-11.707a.83.83 0 0 0 .783-.822.79.79 0 0 0-.408-.692h.216a.81.81 0 0 0 .813-.823c0-.441-.34-.787-.813-.787h-7.992m-.748 15.715h-.685c-.439 0-.783.377-.783.82 0 .44.344.82.783.82h.122c-.249.124-.406.379-.406.694 0 .443.376.788.812.788l-.559 11.803h10.177l-.564-11.803c.469 0 .811-.345.811-.788 0-.315-.155-.57-.404-.694h.126c.435 0 .779-.38.779-.82 0-.443-.344-.82-.779-.82h-9.43m22.167-26.574h-1c-.623 0-1.092.507-1.092 1.108 0 .598.469 1.071 1.092 1.071h.314c-.342.19-.561.568-.561.948 0 .598.465 1.073 1.058 1.103l-.746 15.874h11.707l-.751-15.874a1.08 1.08 0 0 0 1.032-1.103c0-.38-.221-.758-.531-.948h.31c.593 0 1.094-.473 1.094-1.07 0-.602-.501-1.11-1.094-1.11h-10.832m-1 21.303h-.905c-.623 0-1.092.505-1.092 1.104s.469 1.071 1.092 1.071h.158c-.345.19-.564.57-.564.948 0 .63.499 1.105 1.092 1.105l-.748 15.968h13.768l-.782-15.968h.034a1.094 1.094 0 0 0 .531-2.053h.155c.593 0 1.092-.471 1.092-1.07s-.499-1.105-1.092-1.105h-12.739M242.486 57.85l.03.756h.625a.83.83 0 0 1 .811.82c0 .443-.374.79-.811.79h-.563l.187 3.978h.937c.469 0 .811.345.811.786 0 .443-.342.82-.811.82h-.438a.79.79 0 0 1 .408.696.825.825 0 0 1-.75.821l.034.6.622 13.221h-7.18l.625-13.221.03-.6a.8.8 0 0 1-.75-.821c0-.283.157-.568.406-.696h-.468c-.437 0-.78-.377-.78-.82 0-.441.343-.786.78-.786h.935l.191-3.978h-.565a.777.777 0 0 1-.78-.79c0-.441.344-.82.78-.82h.656l.032-.756c.03-.726.312-1.39.718-1.893.342-.347.75-.631 1.186-.76v-2.113c0-.441.28-.822.594-.822.311 0 .561.381.561.822v2.113c.469.129.875.413 1.186.76.437.504.718 1.167.751 1.893m1.122 23.984h.75c.438 0 .813.345.813.786a.835.835 0 0 1-.813.823h-.249c.249.125.404.41.404.692 0 .442-.342.79-.746.822l.559 11.708h-8.678l.563-11.708a.827.827 0 0 1-.781-.822c0-.282.157-.567.405-.692h-.218a.817.817 0 0 1-.814-.823c0-.441.348-.787.814-.787h7.991m.75 15.715h.686c.436 0 .782.377.782.82 0 .44-.346.82-.782.82h-.123c.25.124.404.379.404.694 0 .443-.374.788-.812.788l.531 11.803h-10.145l.562-11.803h-.031a.775.775 0 0 1-.78-.788c0-.315.153-.57.406-.694h-.126c-.437 0-.781-.38-.781-.82 0-.443.344-.82.781-.82h9.428m-22.165-26.574h.997c.626 0 1.093.507 1.093 1.108 0 .598-.467 1.071-1.093 1.071h-.311c.344.19.563.568.563.948 0 .598-.471 1.073-1.064 1.103l.75 15.874h-11.706l.747-15.874a1.106 1.106 0 0 1-1.061-1.103c0-.38.219-.758.561-.948h-.312c-.623 0-1.092-.473-1.092-1.07 0-.602.469-1.11 1.092-1.11h10.836m.997 21.303h.906c.625 0 1.092.505 1.092 1.104s-.467 1.071-1.092 1.071h-.155c.342.19.561.57.561.948 0 .63-.499 1.105-1.094 1.105l.75 15.968h-13.766l.78-15.968h-.034a1.093 1.093 0 0 1-1.092-1.105c0-.378.219-.757.565-.948h-.159c-.623 0-1.092-.471-1.092-1.07s.469-1.105 1.092-1.105h12.738m48.674-19.439h3.12V68.42c0-.786-.654-1.451-1.436-1.451h-.247c-.813 0-1.437.665-1.437 1.451zm10.362 0h3.125V68.42c0-.786-.655-1.451-1.436-1.451h-.249c-.782 0-1.44.665-1.44 1.451zm-5.742 0h4.246V68.42c0-.786-.906-1.451-1.967-1.451h-.342c-1.062 0-1.937.665-1.937 1.451zm70.058 0h-3.153V68.42c0-.786.655-1.451 1.466-1.451h.219a1.47 1.47 0 0 1 1.468 1.451zm-10.395 0h-3.122V68.42c0-.786.654-1.451 1.436-1.451h.247c.813 0 1.439.665 1.439 1.451zm5.744 0h-4.216V68.42c0-.786.875-1.451 1.935-1.451h.344c1.062 0 1.937.665 1.937 1.451zm-82.578 39.635v-7.701c0-2.681 1.935-3.914 3.059-4.954 1.126 1.04 3.061 2.273 3.061 4.954v7.701h2.966V73.882H256.72v38.592zm24.415-16.694h-10.271v-9.718c0-2.684 3.216-3.946 5.118-4.956 1.907 1.01 5.153 2.272 5.153 4.956zm-18.295 0h-6.12v-9.718c0-2.684 1.935-3.946 3.059-4.956 1.126 1.01 3.061 2.272 3.061 4.956zm8.024 16.694h-3.218V73.882h16.391v-7.86h-16.358a1.084 1.084 0 0 1-1.092-1.072c0-.63.498-1.105 1.092-1.105h.094c.497-4.828 3.777-6.847 7.274-9.562v-3.156c0-.537.437-.946.97-.946.497 0 .933.41.933.946v3.156c3.248 2.46 6.245 4.387 7.087 8.395.157.694.718 1.167 1.436 1.167h42.273c.655 0 1.249-.473 1.405-1.167.841-4.008 3.84-5.935 7.087-8.395v-3.156c0-.537.435-.946.938-.946.528 0 .935.41.935.946l.03 3.156c3.528 2.715 6.775 4.734 7.276 9.562h.093c.595 0 1.092.475 1.092 1.105 0 .6-.497 1.072-1.092 1.072h-16.266v7.86h16.39v38.592h-3.217v-7.701c0-2.681-3.246-3.914-5.148-4.954-1.873 1.04-5.121 2.273-5.121 4.954v7.701h-6.774V68.958c0-.6-.5-1.075-1.092-1.075h-35.281c-.592 0-1.092.475-1.092 1.075v43.516h-6.774v-7.701c0-2.681-3.246-3.914-5.153-4.954-1.902 1.04-5.118 2.273-5.118 4.954zm19.231 0h3.841V91.55c0-15.713 25.413-15.713 25.413 0v20.924h3.839V70.062h-33.093zm42.053-16.694h10.269v-9.718c0-2.684-3.246-3.946-5.148-4.956-1.873 1.01-5.121 2.272-5.121 4.956zm18.295 0h6.12v-9.718c0-2.684-1.937-3.946-3.061-4.956-1.122 1.01-3.059 2.272-3.059 4.956zm0 16.694h-2.966V73.882h11.675v38.592h-2.589v-7.701c0-2.681-1.937-3.914-3.061-4.954-1.122 1.04-3.059 2.273-3.059 4.954zm-54.948-87.476c-7.118 6.534-13.863 13.949-13.863 21.43 0 3.153.814 6.15 2.25 8.834.654 1.199 1.811 1.894 3.154 1.894h39.213c1.342 0 2.496-.695 3.15-1.895 1.438-2.682 2.25-5.68 2.25-8.834 0-7.48-6.745-14.895-13.863-21.429-.686-.66-1.496-.946-2.437-.946h-17.419c-.935 0-1.748.286-2.435.946m-10.428 34.68v2.18c0 .409.312.754.72.754l41.707-.028a.71.71 0 0 0 .72-.726v-2.18c0-.41-.311-.755-.72-.755H288.38c-.408 0-.72.345-.72.756m-8.179 57.117c-.654 0-1.217.537-1.217 1.233 0 .662.563 1.229 1.217 1.229h59.505c.656 0 1.219-.567 1.219-1.229 0-.696-.563-1.233-1.219-1.233zm0 4.986c-.654 0-1.217.566-1.217 1.231 0 .696.563 1.262 1.217 1.262h59.505c.656 0 1.219-.566 1.219-1.262 0-.665-.563-1.231-1.219-1.231z" clip-rule="evenodd"/><path fill="url(#b)" fill-rule="evenodd" d="M102.283 69.203c.026.369.414.435.723.263.104-.066.22-.052.349-.04.104.014.013-.157 0-.184-.039-.079-.078-.172-.117-.25-.038-.107-.102-.2-.193-.24a.85.85 0 0 0-.361-.064c-.155-.014-.31-.04-.387.025-.065.08-.014.45-.014.49M91.84 116.634h.658v-1.782c0-.264.206-.488.465-.488h1.975c-.04-2.218 1.187-17.624 1.38-19.974a.44.44 0 0 1-.257-.171c-.09-.146.04-.502-.039-.648-.078-.131-.271-.21-.31-.277-.142-1.531.297-2.442.272-3.815 0-.238-.169-.356-.374-.554-.026-.37.05-.462.037-.58-.077-.027-.58-.054-.607-.08-.012-.634.104-1.954.155-2.43.156-1.451.336-3.075.4-4.54-.606-.29-1.329-.397-1.768-.582-1.11-.475-1.73-.725-3.486-.515-1.238.146-2.181.199-2.517-.17-.426-.477-1.627-1.638-2.04-3.328-.478.08-1.847.027-2.104.027-.478-.014-.685-.053-1.02-.08-.66-.039-1.318-.118-1.783-.303a3 3 0 0 1-.245-.105.2.2 0 0 1-.102-.106c-.014-.014-.014-.026-.027-.04-.038-.04-.09-.04-.18-.092-.078-.04-.168-.145-.168-.212-.013 0-.013 0-.027-.013-.05-.026-.103-.065-.115-.118-.013-.04-.013-.08-.013-.12a.4.4 0 0 1 .064-.092c.052-.052.181-.08.272-.093 0-.105.064-.157.155-.184a.5.5 0 0 1 .128-.026c.026 0 .051-.014.078-.014.052-.012.22-.012.388-.026.193 0 .413 0 .49.014.064 0 .219.012.349.012.025 0 .052 0 .076-.012-.012 0-.024 0-.024-.014-.066-.08-.143-.158-.156-.25 0-.014-.012-.014-.012-.027v-.027c.025-.092.052-.118.154-.144 0 0 .026-.014.13-.014.232.014.478-.013.723-.027.515-.026 1.033-.065 1.497.093.154.053.284.146.413.238.104.066.194.132.284.172.31.145.478.145.762.145a.26.26 0 0 1 .117-.027c1.122.092 5.873-.184 6.016-.277.245-.145.49-.172.696-.25.517-.198.969-.331 1.472-.37.414-.027.827-.08 1.227-.239.439-.157 2.492-.395 3.28-.369.206 0 .838-.053 1.2-.132-.013-.541.142-1.954.129-2.007-.013-.17.387-2.956.516-3.22.195-.384.388-.66.659-.82.271-.171.593-.21 1.033-.144.012 0 .038 0 .038.012.052 0 .117 0 .194-.012.271-.027.646-.067 1.136.409.168.159.284.343.388.607.103.251.167.58.219 1.056.091.753.078 1.505.064 2.258-.012.58-.026 1.162.014 1.743.245.013.504.026.774.052.246.026.491.04.723.053.477.026.877.053 1.265.119.401.066.788.171 1.265.343.208.067.53.185.853.277.232.066.452.12.607.132.619.08 1.084.132 1.445.172.375.04.659.066.93.066.543 0 1.214-.04 1.911-.08a61 61 0 0 0 2.208-.21c.322-.04.645-.093.942-.146.516-.079.981-.159 1.342-.144.194.012.517-.186.865-.397.324-.199.647-.396.917-.449.13-.026.233-.053.311-.066.167-.04.283-.08.632-.118.013 0 .193-.027.387-.067.181-.04.374-.066.49-.092a.154.154 0 0 1 .169.079c.013.027.026.053.026.093 0 .025 0 .052-.026.092-.026.053-.091.132-.155.21.064-.012.117-.012.193-.012.245-.013.555-.04.826-.04.324.013.595.04.685.16a.5.5 0 0 1 .167.051c.04.027.065.053.091.093.013.04.027.08.027.119-.014.04-.014.066-.027.105v.014a.3.3 0 0 1 .027.118c0 .04 0 .092-.027.132-.026.053-.051.106-.116.133-.181.132-.375.105-.4.158-.026.04.039.184-.182.264-.245.079-.786.237-.98.317-.414.198-1.768.594-2.195.62-.284 0-.722-.013-.981-.013-.233 0-.271-.026-.517-.013a.59.59 0 0 0-.439.343c-.103.264-.115.528-.258 1.03q-.078.277-.155.514a5 5 0 0 1-.245.608c-.258.567-.556.924-.814 1.135q-.29.217-.503.238c-1.756.184-7.489 1.571-8.586 1.742.04.885.116 2.337.194 3.987.207 3.643.452 8.224.4 9.65a.47.47 0 0 1-.128.29.45.45 0 0 1-.284.146c-.066 0 .05 2.943.064 3.987v.33c0 .052.013.132.025.224.039.278.091.674.014.937-.039.185-.143.304-.31.331-.09.052-.206.118-.323.171.258 2.284.684 10.984.749 13.096h1.614a.49.49 0 0 1 .477.488v1.782h.646c.361 0 .658.291.684.647l.581 8.951a.68.68 0 0 1-.181.515.63.63 0 0 1-.49.211H91.258a.675.675 0 0 1-.685-.726l.594-8.951a.685.685 0 0 1 .673-.647m18.926.541h-3.486v9.255h4.016c.037 0 .064-.014.102-.04.026-.027.039-.066.026-.105l-.517-8.977c-.012-.08-.063-.133-.141-.133m-1.175-.541v-1.65c0-.079-.065-.132-.143-.132h-3.2v1.782zm-12.73-2.27h.878c.168-4.594.478-9.11.62-13.689.051-1.585.18-3.143.167-4.7 0-.357-.49-.33-.542-.093-.258 1.148-.465 5.465-.452 5.491.04 1.242-.503 10.997-.67 12.991m1.846 0h.943c.206-4.33.542-10.654.426-15.577-.039-1.307-.013-2.18-.349-2.298-.18-.04-.245.133-.27.541-.233.793-.157 4.555-.31 8.331-.142 3.696-.388 7.419-.44 9.003m1.872 0h.891c.155-5.017.362-10.033.503-15.01a6.8 6.8 0 0 0-.167-1.545c-.116-.462-.632-.739-.685.106-.193 3.723-.296 7.339-.464 11.01-.014.488-.065 3.525-.078 5.439m1.743 0h1.279c-.079-4.818.464-11.024-.09-15.921-.052-.41-.582-.567-.686-.264-.206.608-.554 12.633-.503 16.185m2.195 0h.891c.077-1.466.168-4.951.207-8.238.025-3.366 0-6.522-.168-7.063-.091-.29-.401-.396-.517-.119-.542 1.281-.465 12.423-.413 15.42m1.717 0h1.098c.103-3.803-.542-9.136-.62-13.122-.013-.925-.297-.884-.336-.792-.052.118-.026.382-.038.699-.027.871-.014 2.231-.014 2.653 0 3.407-.154 7.235-.09 10.562m-9.101-39.92s-.26.012-.13.29c.04.092.194.224.335.395.569.674 1.15 1.004 1.925 1.413.27.146.825.356 1.278.396.284.013.554-.066.607-.21-.672.039-1.68-.239-1.99-.37-.14-.067-.283-.199-.399-.29-.827-.661-1.072-1.467-1.626-1.625m6.532-.437c.013-.053-.013-.092-.064-.106-.039-.012-.09.014-.104.053-.025.093-.038.198-.065.291-.102.41-.206.844-.748 1.518-.026.04-.026.093.013.119.038.026.09.026.117-.014.567-.7.683-1.16.787-1.584.012-.092.039-.185.064-.277m-.297 4.29c-.038-.039-.091-.025-.13 0a.11.11 0 0 0 .014.133c.129.105.284.198.426.25.181.066.349.106.491.106-.014.224-.014.45-.026.673-.323-.053-.982-.211-1.976-.99.13-.039.22-.066.284-.092.052-.013.038-.04.013-.04-.013-.013-.568 0-1.29 0-1.033 0-2.364-.026-2.518-.118-.014 0-.684-.066-1.046-.238-.595-.277-.904-.396-1.523-.726l-.078-.04c-.425-.238-2.995-1.504-3.679-2.046-.027-.013-.04-.052-.027-.08 0-.026.013-.052.04-.065.568-.264 1.226-.436 1.548-.436.414.013.995-.026 1.512-.224.644-.265 1.496-.357 2.116-.41.801-.065 1.898-.065 2.582-.158.491-.066 1.343-.33 1.511-.343 0 0 .207-.198.465-.462.014-.014.039-.014.065 0 .012.013.012.04 0 .053a1 1 0 0 1-.181.25c-.013.014-.065.08-.065.133.013.026.026.052.052.04.052 0 .103.013.143 0 .051 0 .063-.04.076-.093.014-.04.092-.264.104-.29a4 4 0 0 0 .207-.489c.245-.265.477-.515.542-.647.025-.04.025-.118.013-.118-.039-.027-.078-.027-.117-.027-.102.026-.193.119-.297.132-.232.04-.322-.04-.336-.08-.141-.276-.271-.171-.515-.184-.608-.04-.62-.674.205-.766a.5.5 0 0 0 .208-.066c.025-.026.025-.079.012-.106a.16.16 0 0 0-.129-.066c-.064-.013-.091-.092.064-.079.104 0 .169.053.233.106.117.08.128.119.232.211.078.066.091 0 .078-.08a.8.8 0 0 0-.103-.237c-.051-.079-.129-.131-.181-.184a3 3 0 0 0-.233-.106c-.051-.027-.051-.12-.038-.145.012-.08.026-.053.09-.053.181 0 .026-.25-.078-.317-.116-.066-.258-.092-.258-.198-.013-.158 0-.37 0-.449 0-.105.014-.198.014-.29-.013-.106-.039-.199-.168-.211-.156-.027-.504-.093-.646.04-.026.026-.052.052-.129.026-.039-.013-.052-.066-.052-.159a.5.5 0 0 1 .194-.357c.142-.132.452-.29.645-.369.026-.013.091-.066.064-.093-.012-.013-.024-.013-.038-.013-.064 0-.168.04-.245.067-.245.092-.491.276-.672.395-.012 0-.012.013-.025.013-.026 0-.038 0-.053-.013-.011-.013-.011-.039 0-.052.117-.185.259-.33.415-.422.219-.146.516-.186.903-.12.026 0 .039 0 .065.013.064.014.141 0 .232-.012.219-.027.555-.054.994.369.143.132.259.29.348.528.091.25.156.568.207 1.016.09.753.079 1.492.065 2.245-.013.607-.026 1.228.025 1.835 0 .053.04.08.091.08h.065c-.142.447.025 2.983.013 4.553 0 .145 0 .278-.013.41a1.1 1.1 0 0 1-.426-.093 1.3 1.3 0 0 1-.375-.225m-1.407.225-.181.04a6.6 6.6 0 0 0 1.123 1.042c.427.318.865.542 1.188.555l.038-.528c-.335-.053-1.07-.211-2.168-1.109m.619 1.24c.194.239.465.464.75.661.271.185.542.344.709.423l.039-.515c-.348-.026-.813-.25-1.278-.582a6.3 6.3 0 0 1-1.2-1.147c-.517.118-1.085.237-1.227.25-.155.027-.465.106-.826.106-.426.013-.89-.053-.89.092-.053.172 2.012 1.927 1.651 2.125-.102.053-.619-.21-.968-.501-.13-.106-.323-.33-.517-.581-.064-.079-.154-.105-.244-.066-.091.026-.142.12-.142.211.012.093.012.198.026.33.011.264.063 1.03.347 1.73.31.752 1.757 3.657 2.157 4.237 1.033 1.466 2.439 2.865 2.453 2.931l-.025.053c-.118.013-.517-.396-.608-.436a79 79 0 0 0-.839-.779c-.878-.725-2.207-2.442-2.556-3.551-.194-.316-.788-2.218-.982-2.204-.077.238.09 2.429.155 2.613.077.753.13.66.297 1.267.065.225 1.305 3.195 1.421 3.38.116.172.955 1.782 1.717 3.103.619 1.07 1.2 1.914 1.175 2.02-2.26-1.387-3.668-5.347-4.029-6.297-.297-.806-.567-1.307-.762-2.192-.205-.924-.31-1.703-.31-2.654-.013-1.452-.102-3.379-.038-4.7-.039-.29-.646-.422-.839-.012-.078 1.676-.182 3.42-.425 5.082-.053.356-.336 2.192-.336 2.232.011.434-.169 1.147-.208 1.398.078.026.258.067.285.067.218.052.375.092.593.171.117.04.581.172.646.251.078.118.13 0 .142.238.027.303.051.475-.013.62-.168.357-.62.396-1.007.66-.039.04-.18.158-.27.224-.026.41.025 2.984.038 3.987 1.123.41 5.01 2.521 6.145 3.01.594.264 1.278.357 1.678.581v-.027c-.051-.396-.012-2.072-.064-2.521-.013-.118-.052-.159-.116-.238-.091-.119-.207-.29-.337-.395-.154-.159-.128-.185-.141-.423-.013-.132.039-.343.052-.554 0-.028 0-.053.013-.093l.025-.423c.285-1.425-.219-3.484-.219-5.002 0-1.255.181-2.615.181-3.552 0-1.161.089-2.27.168-3.352-.181-.067-.491-.239-.801-.463a4.4 4.4 0 0 1-.775-.674c-.038-.038-.025-.091 0-.118.038-.04.091-.026.129 0m5.216 20.688c0-.198-.026-.423-.051-.595-.026-.106-.026-.198-.026-.25v-.33c-.013-.938-.013-3.366.051-4a.1.1 0 0 1-.051-.053c-.013-.119-.116-.29-.362-.277-.116 0-.348.145-.451.079-.116-.066-.116-.119-.246-.224-.18-.172-.374-.383-.658-.41-.206-.04-.296-.04-.53-.04-.09 0-.581.186-.723.29a.07.07 0 0 0-.038.067c0 .277-.013 1.874-.104 2.6.078-.026.181-.052.284-.091.633-.238 1.395-.687 1.524-.766.116-.067.67-.396.8-.423.452-.092.336.382.129.41-.025 0-.051 0-.064-.014-.181-.052-.09-.132-.349-.04-.116.04-.529.291-.904.49-.129.065-.529.25-.89.395-.297.119-.542.198-.555.251-.014.026 0 .052 0 .066.154.224.516.303.749.422.581.251 1.291.581 1.471 1.043.026.04.039.092.064.145.027.04.052.093.065.12.065.197.154.184.233.5.064.292.077.344.296.502.181.119.208.067.259.08.038 0 .051.026.077.053m-.336-19.42c-.103-1.267-.232-4.198-.219-5.148 0-.106 0-.726.091-.251.078.397.168 1.24.22 1.492.089.594.812-.106.916-.08.012.186-.801.634-.852 1.043-.013.093-.013.278.012.344.091.356.607.462.892.29.439-.277.722-.54 1.057-.752.621-.383 3.384-2.693 3.758-2.667-.026.08-1.33 1.28-1.486 1.387l-.037.025c-.22.304-1.627 1.308-2.44 1.98 0 0-.582.423-.439.621.309.449 2.93-1.042 3.215-1.188.787-.396 3.163-2.046 3.666-2.046.014.04-.052.092-.09.119-.271.21-2.454 1.558-2.479 1.729-.09.568 2.027.7 2.685.475.103-.382.271-.858.53-1.426.322-.672.555-1.135 1.122-2.006.026-.04.298-.422.336-.396s-.296.581-.607 1.148a27 27 0 0 0-.697 1.334c-.297.647-.478 1.175-.554 1.57-.078.357-.052.582.037.648v.012h.027c.103.04.284-.012.503-.198.245-.184.517-.527.762-1.055.09-.184.168-.37.233-.595-.104-.065-.156-.355-.156-.646.013-.343.091-.885.336-1.36.232-.422.607-.805.878-.778.22-.027.71.276.969.33.244.039.309.039.542.052.425.026 1.032-.013 1.446-.132.193-.04.387-.12.568-.159h.013c.129-.039.245-.078.387-.118.155-.027.425-.133.593-.185.221-.079 0-.132-.064-.211-.052-.118.555-.066.684-.118.038-.027.052-.08.052-.107v-.053c-.052-.026-.052-.079-.039-.118.025-.027.025-.053.039-.08 0 0 0-.013-.014-.026 0 0-.011-.013-.025-.026a.7.7 0 0 0-.142-.04c-.051 0-.077-.04-.077-.079 0-.04-.245-.053-.543-.053-.257-.014-.581.013-.826.026-.116 0-.207.014-.284.014-.025.119-.09.158-.194.224-.115.053-.309.105-.438.158s-.168.093-.309.106c-.078 0-.194 0-.273-.026-.232-.092-.451-.33-.426-.37.156-.224.93-.304 1.227-.316.052-.014.272-.054.388-.08.052-.053.09-.119.116-.158v-.013c-.142.025-.323.065-.466.092-.206.04-.386.066-.399.066-.336.04-.452.066-.619.105a2 2 0 0 1-.324.08c-.233.053-.554.237-.864.422-.065.053-.143.092-.22.145.064.185.245.185.465.159.012 0 .568 0 .58.013.039 0 .363-.013.542.026.168.04.259.133.117.16-.259.025-.865-.015-1.098.039-.231.066-.49.17-.672.106-.141-.04-.309-.133-.309-.318a.8.8 0 0 1-.349.092c-.361-.012-.812.066-1.316.146-.31.053-.62.105-.956.145-.709.08-1.471.159-2.207.21-.517.04-1.008.054-1.446.068-.078.078-.22.21-.31.316-.426.45-1.084.964-1.666 1.346-.309.212-1.072.555-.297-.079.259-.21.491-.369.762-.568.309-.25.724-.672.969-1.002-.258-.013-.53-.027-.878-.067-.387-.04-.84-.092-1.459-.171-.155-.014-.388-.08-.633-.145a12 12 0 0 1-.865-.278 6.3 6.3 0 0 0-1.226-.33c-.375-.066-.775-.092-1.253-.119-.232 0-.478-.026-.723-.052l-.567-.04c.141.686.011 4.264.065 5.281.025.872.051 1.637.037 2.402 0 .225.001.502.014.792 0 .7.012 1.479.051 1.822.052.489.077.845.09 1.254.013.185.026.37.039.607.052.872.09 1.915.116 2.957.013 1.07.013 2.1.013 2.958 0 .131.013.29.013.475.013.528.013 1.28 0 1.742.052.014.104.014.169.027h.089c.103.013.103.066.233.079.22.027.671 0 .93.027.167.013.27.04.374.17.116.146.297.516.516.436.129-.065.194-.065.337-.157.115-.08.489-.159.593-.067.012.014.012.014.026.027.012-1.717-.206-5.9-.4-9.281a1111 1111 0 0 1-.208-4.185m-3.266 12.382c.038.159.091.45.297.49.052.013.091.026.142.026.013-.448 0-1.188 0-1.716 0-.211-.013-.383-.013-.475 0-.872-.09-1.915-.103-2.944-.026-1.043.026-2.086-.026-2.97-.012-.212-.026-.41-.038-.608a18 18 0 0 0-.09-1.24c-.013-.027-.013-.067-.013-.12-.079 1.4-.091 7.802-.156 9.557m-7.179-14.085a.7.7 0 0 0-.284-.303c-.153-.092-.257-.04-.334 0-.065.04-.09.053-.117.198-.039.158-.052.382-.077.607-.078.476-.156.977-.116 1.148.051-.012.141-.092.18-.105.103.053-.232 1.412-.283 1.65-.156.779-.633 3.551-.66 4.356-.011.278.156.238.207.12.336-.674 1.252-5.901 1.484-7.67m-14.95-4.382c.064.04.194.066.246.066.155.013.296.026.452.013.116-.013.245-.026.349-.04.025 0 .154-.013.257-.026.091-.013.18.04.22.119.04.08.077.119.18.224.04.052.195.145.335.198.157.066.325.08.35.12-.014.039-.27.078-.31.092-.129.012-.44.04-.632-.027a.6.6 0 0 1-.13-.093c-.064-.052-.077-.145-.245-.238-.076-.038-.142-.026-.232-.038-.066 0-.736 0-.968-.014-.143 0-.31-.013-.388-.013a2.7 2.7 0 0 0-.464 0c-.169 0-.31 0-.35.013-.038 0-.065.014-.09.014-.038 0-.077.012-.104.012-.025.014-.038.026-.025.08.014 0 .014.013.014.026a.09.09 0 0 1-.09.092h-.091c-.053.014-.13 0-.169.04 0 .013-.012.013-.012.026v.014c0 .013.065.04.077.092.026-.013.051-.013.065-.013.05 0 .284.013.297.04 0 .052-.155.026-.207.092 0 .145.232.106.36.119.04 0 .079.026.053.04-.09.053-.103.144.014.184.14.053.67.145 1.122.185.53.04.62 0 .658-.118.052-.133.156-.014.208.013a1 1 0 0 0 .245.066c.168.039.917.013 1.536-.027.336-.014.633 0 .749-.014.128 0 .258-.038.348-.065a7 7 0 0 1-.038-.727v-.039c-.246 0-.426-.013-.71-.158a4 4 0 0 1-.31-.186c-.13-.078-.245-.171-.374-.21-.44-.159-.943-.12-1.434-.093-.257.013-.503.04-.735.027-.027 0-.078 0-.104.013 0 .027.04.08.077.119m21.742-3.234c-.103.224-.142 1.373-.077 1.676.026.106.077.145.142.106.013-.013.013-1.941-.065-1.782m-1.381-3.974c-.065-.053.063-.027.063-.027.776.172 1.099.555 1.254 1.215.025.132.038.278.051.423.091.765-.038 1.53-.142 2.284-.078.528-.116 1.069-.078 1.544.014.092.053.198.053.317 0 .013-.014.04-.026.04-.22.065-.426-.067-.426-.304v-1.32c0-.106.141-.33.193-.555.154-.567.22-1.162.245-1.334.027-.224-.039-.593-.064-.832-.038-.276-.027-.448-.129-.7-.155-.355-.736-.553-.994-.75m-16.565 7.736c-.116.118.142.58.194.712.129.304.361.475.464.753.026.04.104.146.142.158.014.08.698.977.8 1.07.104.172.62.686.763.858l.026.026c.154.185.077.185.335.237.168.04.749.027.891 0 .26-.065 1.227-.065 1.033-.475-.013-.013-1.316-.977-1.406-1.016-.169-.159-.672-.449-.866-.66-.168-.159-.439-.356-.619-.555-.091-.105-.35-.33-.35-.448.091 0 .36.303.504.303 0 0 .413.277.465.317.013 0 .645.37.788.489.193.145 1.536.792 1.755.858.103.039 1.214.58 1.356.646.296.172.503.238.827.317.128.04.773.212.826.04.167-.343-1.317-1.492-1.55-1.597-.414-.198-1.175-.568-1.498-.846-.18-.157-.297-.224-.438-.434 0 0-.167-.107-.259-.225-.051-.093-.206-.25-.167-.357.012 0 .012 0 .025-.013.155.106.142.211.517.462l.038.026c.09.066.595.41.813.541.53.291 1.046.503 1.55.86.271.171.426.382.555.474.129.079.478.29.478.027 0-.582-.258-.608-.543-1.017 0-.013-.037-.053-.052-.053 0 0-.295-.41-.322-.462-.129-.225-.154-.356-.336-.607-.154-.224-.516-.62-.775-.673-.05 0-3.537.171-3.717.185-.245.026-2.183.013-2.248.078m17.21-6.297a.5.5 0 0 1-.142-.08c-.039-.052-.051-.105.039-.092.013 0 .038 0 .052.013.025.014.051.014.077.04.013 0 .025.013.025.026v.04c.014.013 0 .026-.012.04-.013.013-.026.013-.039.013m-6.624 20.356c.207-.08 1.163-.435 1.19-.462.335-.225-.299-.396-.376-.435-.206-.12-.567-.172-.825-.251-.066.369-.091.831-.028 1.135 0 0 .028.013.039.013" clip-rule="evenodd"/><path fill="url(#c)" fill-rule="evenodd" d="m211.586 89.338 5.694 28.509.596 2.925c-14.519 3.645-31.575 5.755-49.849 5.755-18.253 0-35.333-2.11-49.828-5.755h-.023l.599-2.925 9.687-48.41c8.611-4.124 18.3-6.93 28.609-8.105.669.935 1.196 1.918 1.362 2.686.695 3.309 5.36 8.68 5.598 10.55.096.887.957 3.477 1.963 6.02.454 0 .908-.025 1.362-.025 16.099 0 31.218 3.19 44.23 8.775" clip-rule="evenodd"/><path fill="#fff" fill-rule="evenodd" d="M165.421 102.909c-3.014.096-6.004.071-8.898-.025l-.072-7.384c-.024-2.878 1.962-5.274 4.4-5.372 2.466-.07 4.474 2.232 4.499 5.109zM179.889 103.15a137 137 0 0 1-8.898-.169l-.24-7.36c-.094-2.877 1.818-5.252 4.258-5.3 2.464-.048 4.546 2.254 4.642 5.132zM193.764 104.085c-2.511 0-4.977-.12-7.416-.289-.144-2.301-.263-4.603-.383-6.905-.168-2.71 1.387-4.915 3.421-4.915s3.827 2.205 3.971 4.915c.144 2.398.263 4.796.407 7.194M203.691 104.684a69 69 0 0 1-5.955-.456c-.168-2.134-.336-4.293-.527-6.449-.215-2.52.957-4.533 2.584-4.486s3.133 2.135 3.349 4.654c.167 2.253.359 4.482.549 6.737M211.564 105.787a39 39 0 0 1-4.45-.601l-.694-5.97c-.263-2.35.527-4.194 1.747-4.1 1.219.096 2.44 2.087 2.702 4.414zM143.769 103.604c2.512 0 4.974-.095 7.414-.287.119-2.302.264-4.604.384-6.906.166-2.71-1.388-4.916-3.423-4.916-2.031 0-3.826 2.206-3.969 4.916a694 694 0 0 0-.406 7.193M133.172 104.684a69 69 0 0 0 5.955-.456c.168-2.134.336-4.293.528-6.449.213-2.52-.957-4.533-2.585-4.486-1.626.048-3.133 2.135-3.324 4.654-.192 2.253-.384 4.482-.574 6.737M124.562 105.762a47 47 0 0 0 4.448-.576l.671-5.993c.263-2.35-.502-4.171-1.722-4.077-1.219.073-2.441 2.061-2.704 4.413zM165.47 124.992a248 248 0 0 1-12.175-.384l.238-6.809c.144-3.932 3.014-7.17 6.364-7.17 3.348 0 5.98 3.238 5.836 7.17zM183.457 124.489c-4.043.265-8.18.432-12.39.48l-.097-7.049c-.072-4.1 2.681-7.362 6.1-7.291 3.397.098 6.244 3.525 6.291 7.6zM148.195 124.272a221 221 0 0 1-9.496-.912l.549-6.207c.311-3.502 2.728-6.307 5.359-6.283 2.631.048 4.522 2.924 4.211 6.402zM134.009 122.763c-2.32-.337-4.592-.695-6.794-1.102l.791-4.963c.477-3.023 2.416-5.422 4.328-5.349 1.914.072 3.086 2.59 2.608 5.611zM124.109 121.085a101 101 0 0 1-4.187-.889l.958-3.812c.646-2.564 2.152-4.555 3.348-4.461 1.172.12 1.628 2.303.98 4.868zM197.763 123.171c-3.133.384-6.339.718-9.64.981l-.479-6.88c-.263-3.574 1.699-6.497 4.378-6.474 2.678.024 5.071 2.973 5.334 6.546zM208.353 121.541c-2.249.406-4.544.791-6.888 1.126l-.838-5.707c-.454-3.068.766-5.635 2.679-5.684 1.938-.021 3.899 2.448 4.329 5.515zM215.124 120.174c-1.387.31-2.774.598-4.21.886l-1.077-4.269c-.645-2.564-.215-4.747.981-4.868 1.197-.094 2.704 1.897 3.349 4.461z" clip-rule="evenodd"/><path fill="#fff" fill-rule="evenodd" d="m212.161 92.12.239 1.221c-5.693-1.51-11.577-2.709-17.606-3.618a182 182 0 0 0-26.766-1.967c-10.358 0-20.62.862-30.404 2.566a160 160 0 0 0-13.945 3.02l.239-1.223c4.377-1.151 8.898-2.108 13.516-2.9 9.855-1.702 20.164-2.567 30.594-2.567 9.137 0 18.179.671 26.934 1.966a169 169 0 0 1 17.199 3.501" clip-rule="evenodd"/><path fill="#fff" fill-rule="evenodd" d="m212.539 94.134.12.6-.192-.049-.191-.047-.192-.072-.191-.048-.191-.049c-.024 0-.049 0-.072-.024-.288-.168-.096-.575.215-.502l.192.047.192.048.191.047zm-3.588-.335c.048 0 .119 0 .166-.025.264-.096.217-.455-.047-.528l-.142-.023-.192-.05-.192-.046-.216-.049-.191-.047-.167-.048c-.239-.048-.43.19-.335.383.048.096.12.143.192.169l.192.047.19.025.192.047.191.047.192.049zm-3.899-.89c.312.074.502-.334.214-.501-.023-.026-.047-.026-.094-.026l-.192-.047-.191-.048-.192-.048-.19-.023-.216-.048-.121-.024a.31.31 0 0 0-.286.095c-.119.169-.048.408.167.432l.119.024.216.05.192.046.191.046.191.025zm-3.899-.79c.311.072.479-.36.191-.502-.024-.026-.047-.026-.072-.026l-.071-.023-.215-.025-.192-.048-.191-.046-.216-.025-.191-.046h-.047c-.311-.05-.48.334-.216.501.024.026.071.026.096.049h.047l.216.048.191.023.215.05.192.022.192.049zm-3.924-.67a.292.292 0 0 0 .217-.528c-.049 0-.073-.023-.121-.023l-.167-.027-.215-.046-.192-.025-.215-.022-.191-.05-.144-.023c-.31-.048-.455.383-.167.528.023.023.048.023.072.023l.142.024.192.026.216.046.191.026.215.021zm-3.922-.599c.335.02.455-.41.143-.528-.024-.026-.047-.026-.072-.026l-.119-.023-.192-.024-.215-.023-.191-.024-.215-.049-.192-.024a.36.36 0 0 0-.263.097.276.276 0 0 0 .191.456l.192.022.191.025.216.049.192.022.215.025zm-3.947-.528c.286.047.431-.337.167-.506-.024-.021-.071-.021-.119-.021l-.071-.026-.192-.023-.217-.023-.213-.026-.192-.023-.216-.024h-.023c-.264-.024-.431.311-.215.479q.07.073.143.073h.024l.215.024.215.023.192.024.215.023.215.026zm-3.972-.41a.276.276 0 0 0 .145-.525c-.024-.026-.049-.026-.096-.026h-.049l-.215-.023-.214-.023-.191-.026h-.216l-.215-.021h-.025c-.143-.026-.239.047-.286.166-.096.168.023.36.215.382h.263l.215.026.192.024.215.023.215.023zm-3.97-.334c.215.023.359-.191.287-.383-.047-.096-.143-.168-.239-.168h-.071l-.192-.024h-.216l-.215-.025-.216-.023h-.238a.27.27 0 0 0-.311.215.297.297 0 0 0 .264.335h.238l.216.025.215.024h.215l.216.025zm-3.971-.24a.3.3 0 0 0 .288-.215.264.264 0 0 0-.264-.337h-.071l-.216-.024h-.215l-.215-.023h-.215l-.215-.024c-.264 0-.384.288-.216.48a.46.46 0 0 0 .192.094h.429l.217.026h.215l.192.023zm-3.994-.168c.143 0 .262-.071.286-.215.049-.169-.094-.336-.262-.336h-.33499999999999996l-.216-.023h-.5980000000000001c-.096 0-.215.047-.262.143a.28.28 0 0 0 .239.407h.406l.215.024h.527m-3.971-.071c.312 0 .382-.433.071-.528-.023-.024-.047-.024-.071-.024h-1.148c-.311 0-.407.408-.096.527.024.025.047.025.096.025h1.148m-3.995.024c.24-.024.358-.312.191-.48-.047-.047-.119-.096-.191-.096l-.143.025h-1.006c-.334.024-.405.455-.071.551h1.2200000000000002m-3.995.096c.12-.024.24-.096.263-.216.048-.17-.071-.36-.286-.337h-.503l-.239.026h-.383c-.287.023-.382.407-.119.527.024.023.095.049.143.023h.383l.239-.023h.502m-3.97.168a.26.26 0 0 0 .215-.12c.12-.193-.023-.433-.263-.433l-.12.025h-.263l-.24.025h-.238l-.24.023h-.023a.281.281 0 0 0-.072.55h.14300000000000002l.24-.023h.239l.239-.023h.239zm-3.972.287c.24-.024.36-.336.145-.504a.28.28 0 0 0-.192-.071l-.239.024-.241.023-.238.024-.239.025h-.19c-.313.047-.36.48-.025.551.025 0 .047.023.072 0h.19l.24-.023.239-.026.239-.023zm-3.97.337c.048 0 .096-.026.142-.05.217-.166.073-.527-.213-.504l-.072.027-.239.022-.239.024-.241.024-.238.025h-.096c-.335.047-.335.502-.024.55h.192l.239-.022.215-.026.238-.023.241-.025zm-3.971.454c.31-.049.358-.454.047-.553h-.118l-.144.026-.215.023-.24.024-.238.026-.241.047h-.047a.271.271 0 0 0-.072.527c.048.024.095.024.144.024h.048l.239-.048.24-.023.239-.024.215-.024zm-3.947.529c.311-.049.335-.48.025-.553h-.096l-.168.024-.239.049-.24.024-.239.047-.215.024h-.048c-.264.048-.311.408-.071.528.071.024.119.047.168.024h.023l.239-.024.239-.049.24-.023.216-.048zm-3.922.623c.31-.049.31-.48 0-.552h-.098l-.166.048-.239.024-.24.047-.214.049-.24.023-.024.024c-.095 0-.192.072-.215.144a.276.276 0 0 0 .311.383h.023l.241-.048.239-.023.213-.046.241-.049zm-3.924.718c.263-.048.312-.407.048-.527-.048-.025-.096-.025-.167-.025l-.119.049-.241.024-.215.049-.239.047-.238.047-.049.025c-.311.047-.311.48 0 .526.025.025.072.025.095 0h.073l.239-.046.215-.05.239-.046.217-.048zm-3.899.816c.288-.073.311-.456 0-.551h-.119l-.071.023-.24.048-.216.047-.216.05-.238.048-.143.046c-.311.073-.264.528.07.553.024 0 .049-.025.073-.025l.143-.024.217-.047.213-.046.241-.05.215-.05zm-3.875.912c.311-.098.288-.505-.024-.554h-.119l-.192.049-.215.072-.239.048-.215.049-.215.072h-.025c-.286.071-.286.478.025.528.047.022.071.022.119 0h.024l.215-.05.215-.072.239-.047.216-.047zM215.433 108.52l.216 1.127a398 398 0 0 0-16.53-1.557 428 428 0 0 0-31.096-1.129c-9.927 0-19.806.337-29.518 1.031-6.123.407-12.152.983-18.085 1.655l.217-1.127a383 383 0 0 1 17.772-1.63 418 418 0 0 1 29.614-1.032c10.502 0 20.93.384 31.192 1.127 5.454.409 10.86.912 16.218 1.535" clip-rule="evenodd"/><path fill="#fff" fill-rule="evenodd" d="m215.794 110.365.119.575-.215-.023-.239-.024-.215-.023-.239-.024-.238-.025-.241-.024c-.047-.023-.096-.023-.12-.049-.262-.166-.095-.548.192-.502l.239.025.239.022.215.024.241.026.238.022zm-95.635.575.121-.575h.142l.217-.022.239-.026.215-.024.215-.047.216-.025.238-.021c.048 0 .073 0 .12.021.287.072.264.506-.047.527h-.025l-.214.026-.217.023-.215.024-.239.049-.215.023-.216.024-.214.023zm92.67-.335c.333.023.429-.405.143-.527-.024-.023-.049-.023-.073-.023l-.166-.024-.24-.025-.239-.024-.239-.024-.239-.023-.215-.026-.24-.022-.239-.025-.239-.025-.239-.023-.24-.025-.239-.023h-.071c-.096-.023-.192.023-.264.096-.119.169-.024.431.216.431l.07.024.241.026.238.022.216.025.24.023.239.025.239.024.239.023.24.026.214.023.24.024.239.024zm-4.522-.478c.072.023.168-.026.239-.072.144-.168.048-.455-.192-.481h-.119l-.239-.023-.215-.024-.239-.025-.239-.023-.241-.024-.238-.024h-.239l-.239-.023-.241-.025-.238-.023-.239-.025-.12-.025a.276.276 0 0 0-.142.527c.023.025.047.025.094.025l.119.025.24.022.239.026.239.023.239.024h.24l.239.024.215.025.24.024.24.023.238.023.239.026zm-4.546-.407c.121.023.217-.049.288-.146a.298.298 0 0 0-.239-.408h-.072l-.239-.022-.239-.026h-.239l-.24-.023-.239-.024-.239-.023-.239-.024-.24-.026h-.239l-.239-.023-.238-.024h-.145c-.311-.023-.431.384-.143.504.024.024.047.024.096.047h.143l.24.025.239.024h.239l.239.023.24.026.239.023.238.024.24.024h.24l.239.022.238.027zm-4.544-.36c.239.023.407-.265.239-.457-.047-.048-.119-.096-.19-.096h-.072l-.241-.024-.238-.023h-.24l-.238-.026-.239-.024h-.24l-.239-.022-.263-.025h-.24l-.239-.025-.239-.021h-.119a.272.272 0 0 0-.239.454c.047.047.119.095.19.095h.145l.238.025.239.025h.239l.24.023.239.024h.239l.239.024.24.023.239.025h.239l.239.025zm-4.544-.312c.31.023.406-.41.118-.528-.023 0-.047-.025-.096-.025h-.07l-.24-.024h-.24l-.262-.023h-.239l-.239-.024-.24-.025h-.239l-.239-.024h-.239l-.24-.023-.239-.026h-.119c-.286-.02-.431.384-.143.529a.2.2 0 0 0 .119.024l.096.024h.238l.263.025h.24l.239.023h.239l.239.024.24.023h.239l.239.026h.239l.24.024zm-4.569-.265c.286.024.43-.335.167-.504a.2.2 0 0 0-.12-.046h-.358l-.264-.026h-.239l-.239-.024h-.239l-.24-.023h-.239l-.239-.023h-.262l-.24-.026h-.288a.271.271 0 0 0-.119.527c.025 0 .048.025.072.025h.311l.239.025h.239l.263.022h.24l.238.024h.241l.238.026h.239l.239.023h.36m-4.546-.192c.288 0 .407-.384.145-.527-.025-.024-.073-.024-.121-.024l-.167-.023h-.24l-.262-.025h-.478l-.24-.024h-.239l-.239-.024h-.503l-.239-.023h-.239c-.119 0-.215.047-.263.169-.096.166.023.381.24.381l.239.024h.478l.263.025h.478l.239.024h.24l.239.024h.501zm-4.544-.167c.12 0 .239-.072.263-.191.072-.169-.071-.361-.263-.361h-.24l-.239-.023h-.478l-.264-.024h-.718l-.262-.026h-.646c-.096-.022-.215.05-.262.145-.096.167.047.382.238.408h.67l.239.023h.741l.239.024h.479l.239.025zm-4.569-.118c.263.02.407-.314.192-.481a.28.28 0 0 0-.192-.072h-.55l-.264-.026h-1.2189999999999999l-.239-.023h-.575a.21.21 0 0 0-.167.073c-.215.167-.095.479.167.479h.311l.264.023h1.2189999999999999l.239.027h.814m-4.569-.073c.335 0 .407-.408.12-.529-.048 0-.073-.024-.096-.024h-2.8709999999999996c-.31 0-.406.41-.096.527.049.026.073.026.096.026h2.8470000000000004m-4.546 0c.313 0 .409-.408.096-.553h-2.9409999999999994c-.311 0-.407.384-.145.527.049.026.096.026.145.026h2.8449999999999998m-4.568.023c.192 0 .31-.166.287-.335-.024-.122-.143-.217-.287-.217h-.7879999999999999l-.24.023h-1.388l-.239.026h-.191a.28.28 0 0 0-.073.553h.503l.239-.027h1.389l.239-.023h.5489999999999999m-4.545.07c.311 0 .383-.43.072-.527-.048-.022-.072-.022-.095-.022h-.167l-.24.022h-.694l-.24.026h-.693l-.215.024h-.598c-.31.023-.383.457-.072.55.024 0 .048.025.095.025l.121-.025h.693l.239-.024h.45499999999999996l.239-.023h.9099999999999999zm-4.569.145a.26.26 0 0 0 .24-.145c.12-.166-.025-.43-.263-.405h-.478l-.215.023h-.48l-.215.024h-.478l-.215.024h-.241l-.238.025h-.288c-.262 0-.381.358-.142.503.048.048.118.048.167.048h.288l.238-.024h.45499999999999996l.239-.024h.238l.216-.025h.479l.215-.024h.478m-4.544.167c.287-.021.358-.382.119-.527-.047-.021-.095-.021-.143-.021h-.096l-.217.021h-.237l-.215.026h-.479l-.215.023h-.239l-.239.023h-.217l-.239.024h-.215l-.239.026h-.024c-.288 0-.359.405-.071.527a.2.2 0 0 0 .119.023l.24-.023h.214l.24-.026h.238l.216-.024h.239l.216-.022h.479l.215-.025h.239l.239-.025zm-4.569.241c.335-.024.383-.48.048-.553-.023 0-.048-.02-.072 0h-.36l-.215.026h-.239l-.215.023-.239.024h-.239l-.215.025h-.241l-.213.024h-.241l-.215.023h-.215a.37.37 0 0 0-.263.192c-.048.192.097.385.288.385l.214-.024.24-.026h.215l.239-.023h.216l.238-.024h.216l.24-.023.239-.025h.215l.239-.024h.33499999999999996m-4.546.265c.288-.026.384-.41.096-.527-.047-.026-.071-.026-.143-.026h-.143l-.215.026-.239.021h-.217l-.239.025-.215.025h-.239l-.215.022-.239.024h-.215l-.239.026-.217.023h-.19a.5.5 0 0 0-.192.096c-.191.169-.047.481.215.456h.19l.241-.025.215-.023h.239l.216-.024.24-.024h.215l.239-.023.238-.025h.216l.238-.025.216-.022zm-4.544.335c.311-.048.358-.455.072-.551-.048 0-.072-.025-.119 0h-.144l-.239.023-.216.024h-.239l-.215.023-.239.026-.215.024h-.215l-.24.023-.216.024-.239.023-.215.026h-.216c-.31.022-.358.479-.023.549h.286l.215-.022.241-.024.215-.024.239-.023h.215l.215-.026.24-.023.214-.024h.241l.215-.025.239-.023zm-4.544.358c.094 0 .19-.048.239-.144.095-.191-.072-.406-.288-.406l-.119.023-.239.025-.216.025h-.24l-.215.023-.239.025-.215.023-.215.024-.239.024-.216.023h-.238l-.216.025-.215.024h-.023c-.288.023-.36.431-.049.55h.119l.215-.023h.24l.214-.023.216-.024.24-.025.216-.024.238-.024.216-.023.214-.026h.239l.216-.022.239-.025zm-4.546.434a.26.26 0 0 0 .263-.216c.025-.193-.12-.335-.31-.335l-.096.023-.217.023h-.215l-.239.023-.215.025-.215.023-.239.025-.215.025-.216.022-.238.026-.216.023-.215.024-.239.024-.072.025c-.12 0-.215.096-.239.215-.025.192.119.336.311.336l.071-.024.216-.024.215-.023.24-.026.215-.023.214-.024.24-.025.216-.023.238-.025.216-.022.215-.026h.239l.215-.024zM161.474 84.47c-1.842.144-3.66.24-5.454.265l-.047-4.508c-.024-1.774 1.195-3.31 2.703-3.429 1.482-.12 2.727 1.22 2.751 2.973zM150.088 86.029a71 71 0 0 1-4.904.455c.047-1.413.071-2.852.094-4.267.025-1.677 1.173-3.214 2.513-3.38 1.34-.193 2.416 1.054 2.391 2.71-.047 1.51-.071 2.996-.094 4.482M139.897 87.373a61 61 0 0 1-4.329.67c.073-1.34.144-2.708.216-4.052.07-1.605 1.123-3.093 2.32-3.332 1.196-.217 2.104.888 2.01 2.47zM130.659 88.547c-1.268.36-2.535.648-3.755.887l.336-3.835c.144-1.512 1.1-2.973 2.128-3.261 1.053-.288 1.794.693 1.651 2.206zM152.959 67.735l3.086-.215.168 3.427-3.062.24zM146.353 68.934c.908-.073 1.841-.145 2.751-.24.024 1.078.047 2.158.096 3.212-.934.096-1.843.17-2.775.265zM140.159 70.47c.813-.1 1.626-.17 2.439-.266 0 1.006 0 1.99-.023 2.997-.813.095-1.627.192-2.441.264.025-.983.025-1.99.025-2.996M134.369 72.194c.694-.094 1.387-.215 2.105-.335-.024.934-.024 1.846-.047 2.78-.695.12-1.388.218-2.106.336.024-.909.024-1.847.048-2.78M129.418 73.706l1.794-.313-.216 2.54-1.794.338zM126.263 80.37l.262-1.223a194 194 0 0 1 15.261-3.284c6.866-1.2 14.114-2.135 21.648-2.782.215.408.383.768.479 1.056a258 258 0 0 0-21.935 2.806c-5.502.982-10.764 2.11-15.715 3.428" clip-rule="evenodd"/><path fill="#fff" fill-rule="evenodd" d="m125.997 81.713.122-.599a194 194 0 0 1 16.385-3.572c6.841-1.2 14.064-2.135 21.552-2.784.024.146.071.337.12.529-7.487.646-14.735 1.583-21.577 2.783-5.837 1.029-11.41 2.253-16.602 3.643M157.741 63.945a.283.283 0 0 0 .096-.527c-.047-.023-.119-.048-.168-.023l-.167.023h-.191l-.167.024h-.049c-.119.024-.215.096-.239.215-.048.193.096.36.311.335h.024l.192-.023h.167zm-2.272.265c.335-.049.335-.48.024-.553h-.16699999999999998l-.192.024-.168.049h-.143c-.287.047-.335.431-.048.527.048.023.096.023.144.023l.12-.023.166-.024.192-.023zm-2.249.31c.12 0 .216-.095.24-.216.048-.192-.12-.36-.335-.335l-.143.023-.192.05-.168.022h-.047a.31.31 0 0 0-.239.24c-.025.194.143.337.335.313h.047l.168-.048.19-.024zm-2.248.385a.28.28 0 0 0 .239-.264c.024-.192-.143-.337-.335-.288h-.048l-.167.024-.192.048-.168.024c-.094.024-.19.096-.213.192-.049.192.119.382.334.36l.144-.025.189-.049.169-.022zm-2.225.408c.311-.073.288-.504-.024-.552h-.095l-.12.023-.167.049-.167.023-.096.026c-.312.07-.312.478-.025.551h.144l.071-.024.191-.049.169-.023zm-2.225.455c.264-.048.312-.408.049-.528-.072-.022-.119-.022-.168 0l-.192.026-.166.047-.168.047h-.047c-.312.073-.264.552.07.552h.072l.024-.025.192-.023.168-.047zm-2.224.528c.142-.024.24-.144.215-.287 0-.168-.167-.29-.335-.265l-.047.024-.192.049-.166.024-.168.046c-.288.073-.288.506.047.552h.096l.168-.046.166-.049.192-.048zm-2.177.55c.311-.07.239-.526-.072-.526h-.096l-.071.024-.191.049-.168.046-.12.027c-.311.093-.263.526.072.55h.096l.12-.049.168-.047.167-.049zm-2.201.624c.313-.096.24-.527-.071-.55-.025 0-.048.023-.095.023l-.122.024-.166.049-.168.07-.095.026a.27.27 0 0 0 .095.527h.072l.096-.026.166-.046.169-.047zm-2.152.672c.023-.024.072-.047.096-.072.215-.216 0-.55-.288-.457l-.143.049-.167.049-.168.048-.072.023c-.286.12-.215.55.096.55.048 0 .072 0 .096-.022l.072-.023.167-.05.167-.048zm-2.153.719c.262-.096.238-.503-.072-.552-.048 0-.095 0-.12.023l-.166.05-.169.07-.166.05-.049.024a.29.29 0 0 0-.166.169c-.073.239.143.43.358.334h.047l.168-.072.167-.047zm-2.153.768c.311-.12.216-.552-.12-.552-.023 0-.048.025-.071.025l-.167.071-.168.049-.168.07-.024.025c-.311.097-.215.527.096.527.023 0 .073 0 .096-.025l.047-.023.168-.047.168-.072zm-2.105.815c.288-.12.191-.552-.12-.529h-.095l-.144.073-.168.073-.168.07h-.047c-.288.12-.19.553.12.553.025 0 .072-.024.095-.024l.049-.024.166-.073.169-.07zm-2.081.864c.071-.025.144-.12.167-.192.025-.242-.192-.409-.407-.311l-.143.069-.168.05-.143.073-.071.023a.277.277 0 0 0 .143.527c.024 0 .072 0 .094-.023l.073-.026.144-.072.167-.047z" clip-rule="evenodd"/><defs><linearGradient id="a" x1="309.234" x2="309.234" y1=".887" y2="126.958" gradientUnits="userSpaceOnUse"><stop stop-color="#F37022" stop-opacity=".5"/><stop offset="1" stop-color="#FCAF17" stop-opacity="0"/></linearGradient><linearGradient id="b" x1="102.019" x2="102.019" y1="67.376" y2="126.958" gradientUnits="userSpaceOnUse"><stop stop-color="#F37022" stop-opacity=".5"/><stop offset="1" stop-color="#FCAF17" stop-opacity="0"/></linearGradient><linearGradient id="c" x1="168.026" x2="168.026" y1="126.527" y2="61.332" gradientUnits="userSpaceOnUse"><stop stop-color="#FCAF17" stop-opacity="0"/><stop offset="1" stop-color="#F37022" stop-opacity=".5"/></linearGradient></defs></svg>