<svg xmlns="http://www.w3.org/2000/svg" width="31" height="30" fill="none" viewBox="0 0 31 30"><path fill="#E0E0E0" d="M15.873 3.047A11.953 11.953 0 1 0 27.826 15 11.967 11.967 0 0 0 15.873 3.047m0 22.5A10.547 10.547 0 1 1 26.42 15a10.56 10.56 0 0 1-10.547 10.547m-5.39-12.89a1.172 1.172 0 1 1 2.342 0 1.172 1.172 0 0 1-2.343 0m11.718 0a.703.703 0 0 1-.703.702h-2.813a.703.703 0 0 1 0-1.406h2.813a.703.703 0 0 1 .703.703m-1.032 5.507c-1.163 2.011-3.093 3.164-5.296 3.164s-4.133-1.153-5.296-3.164a.703.703 0 0 1 1.217-.703c.918 1.587 2.367 2.46 4.079 2.46s3.164-.873 4.08-2.46a.704.704 0 1 1 1.216.703"/></svg>